<svg xmlns="http://www.w3.org/2000/svg" xmlns:xlink="http://www.w3.org/1999/xlink" viewBox="0,0,256,256" width="48px" height="48px" fill-rule="nonzero"><g fill="#ffffff" fill-rule="nonzero" stroke="none" stroke-width="1" stroke-linecap="butt" stroke-linejoin="miter" stroke-miterlimit="10" stroke-dasharray="" stroke-dashoffset="0" font-family="none" font-weight="none" font-size="none" text-anchor="none" style="mix-blend-mode: normal"><g transform="scale(5.33333,5.33333)"><path d="M10,6c-2.19733,0 -4,1.80267 -4,4v6c0,2.19733 1.80267,4 4,4h28c1.11667,0 2,0.88333 2,2v5c-0.0051,0.36064 0.18438,0.69608 0.49587,0.87789c0.3115,0.18181 0.69676,0.18181 1.00825,0c0.3115,-0.18181 0.50097,-0.51725 0.49587,-0.87789v-5c0,-2.19733 -1.80267,-4 -4,-4h-28c-1.11667,0 -2,-0.88333 -2,-2v-6c0,-1.11667 0.88333,-2 2,-2h28c1.11667,0 2,0.88333 2,2v5c-0.0051,0.36064 0.18438,0.69608 0.49587,0.87789c0.3115,0.18181 0.69676,0.18181 1.00825,0c0.3115,-0.18181 0.50097,-0.51725 0.49587,-0.87789v-5c0,-2.19733 -1.80267,-4 -4,-4zM6.98438,21.98633c-0.55152,0.00862 -0.99193,0.46214 -0.98437,1.01367v5c0,2.19733 1.80267,4 4,4h28c1.11667,0 2,0.88333 2,2v6c0,1.11667 -0.88333,2 -2,2h-28c-1.11667,0 -2,-0.88333 -2,-2v-5c0.0051,-0.36064 -0.18438,-0.69608 -0.49587,-0.87789c-0.3115,-0.18181 -0.69676,-0.18181 -1.00825,0c-0.3115,0.18181 -0.50097,0.51725 -0.49587,0.87789v5c0,2.19733 1.80267,4 4,4h28c2.19733,0 4,-1.80267 4,-4v-6c0,-2.19733 -1.80267,-4 -4,-4h-28c-1.11667,0 -2,-0.88333 -2,-2v-5c0.0037,-0.2703 -0.10218,-0.53059 -0.29351,-0.72155c-0.19133,-0.19097 -0.45182,-0.29634 -0.72212,-0.29212z"></path></g></g></svg>