<svg xmlns="http://www.w3.org/2000/svg" xmlns:xlink="http://www.w3.org/1999/xlink" viewBox="0,0,256,256" width="24px" height="24px" fill-rule="nonzero"><g fill="#ffffff" fill-rule="nonzero" stroke="none" stroke-width="1" stroke-linecap="butt" stroke-linejoin="miter" stroke-miterlimit="10" stroke-dasharray="" stroke-dashoffset="0" font-family="none" font-weight="none" font-size="none" text-anchor="none" style="mix-blend-mode: normal"><g transform="scale(10.66667,10.66667)"><path d="M12,3c-2.29358,0 -4.36914,0.28174 -5.95508,0.77734c-0.79297,0.2478 -1.4649,0.54275 -2.00977,0.94531c-0.46487,0.34346 -0.86956,0.83713 -0.98438,1.45508c-0.03445,0.10392 -0.05161,0.21279 -0.05078,0.32227v4v4v4c0,0.77755 0.49026,1.37476 1.03516,1.77734c0.5449,0.40259 1.21678,0.69753 2.00977,0.94531c1.58597,0.49556 3.66165,0.77734 5.95508,0.77734c0.36064,0.0051 0.69608,-0.18438 0.87789,-0.49587c0.18181,-0.3115 0.18181,-0.69676 0,-1.00825c-0.18181,-0.3115 -0.51725,-0.50097 -0.87789,-0.49587c-2.12457,0 -4.04985,-0.27831 -5.35937,-0.6875c-0.65476,-0.20459 -1.15318,-0.4489 -1.41797,-0.64453c-0.1898,-0.14023 -0.2197,-0.20666 -0.22266,-0.20312v-1.63672c0.32197,0.14585 0.66743,0.27658 1.04492,0.39453c1.58597,0.49556 3.66165,0.77734 5.95508,0.77734c0.36064,0.0051 0.69608,-0.18438 0.87789,-0.49587c0.18181,-0.3115 0.18181,-0.69676 0,-1.00825c-0.18181,-0.3115 -0.51725,-0.50097 -0.87789,-0.49587c-2.12457,0 -4.04985,-0.27831 -5.35937,-0.6875c-0.65476,-0.20459 -1.15318,-0.4489 -1.41797,-0.64453c-0.1898,-0.14023 -0.2197,-0.20666 -0.22266,-0.20312v-1.63672c0.32197,0.14585 0.66743,0.27658 1.04492,0.39453c1.58597,0.49556 3.66165,0.77734 5.95508,0.77734c2.29343,0 4.36911,-0.28178 5.95508,-0.77734c0.37749,-0.11795 0.72295,-0.24868 1.04492,-0.39453v0.17188c-0.0051,0.36064 0.18438,0.69608 0.49587,0.87789c0.3115,0.18181 0.69676,0.18181 1.00825,0c0.3115,-0.18181 0.50097,-0.51725 0.49587,-0.87789v-2.5v-4c0.00104,-0.11013 -0.01612,-0.21968 -0.05078,-0.32422c-0.11533,-0.61704 -0.51998,-1.11002 -0.98437,-1.45312c-0.54486,-0.40256 -1.2168,-0.69751 -2.00977,-0.94531c-1.58593,-0.4956 -3.66149,-0.77734 -5.95508,-0.77734zM12,5c2.1247,0 4.04988,0.27828 5.35938,0.6875c0.65475,0.20461 1.15319,0.4489 1.41797,0.64453c0.11754,0.08685 0.16039,0.1357 0.1875,0.16797c-0.02711,0.03227 -0.06996,0.08112 -0.1875,0.16797c-0.26478,0.19563 -0.76322,0.43992 -1.41797,0.64453c-1.30949,0.40922 -3.23468,0.6875 -5.35937,0.6875c-2.1247,0 -4.04988,-0.27828 -5.35937,-0.6875c-0.65475,-0.20461 -1.15319,-0.4489 -1.41797,-0.64453c-0.11754,-0.08685 -0.16039,-0.1357 -0.1875,-0.16797c0.02711,-0.03227 0.06996,-0.08112 0.1875,-0.16797c0.26478,-0.19563 0.76322,-0.43992 1.41797,-0.64453c1.30949,-0.40922 3.23468,-0.6875 5.35938,-0.6875zM5,8.82813c0.32197,0.14585 0.66744,0.27657 1.04492,0.39453c1.58593,0.4956 3.66149,0.77734 5.95508,0.77734c2.29358,0 4.36914,-0.28174 5.95508,-0.77734c0.37748,-0.11796 0.72295,-0.24868 1.04492,-0.39453v1.63672c-0.00296,-0.00353 -0.03285,0.0629 -0.22266,0.20313c-0.26479,0.19563 -0.7632,0.43994 -1.41797,0.64453c-1.30953,0.40919 -3.2348,0.6875 -5.35937,0.6875c-2.12457,0 -4.04985,-0.27831 -5.35937,-0.6875c-0.65476,-0.20459 -1.15318,-0.4489 -1.41797,-0.64453c-0.1898,-0.14023 -0.2197,-0.20666 -0.22266,-0.20312zM18.12305,15.16602c-0.206,0 -0.38283,0.14566 -0.42383,0.34766l-0.13281,0.65039c-0.569,0.159 -1.07828,0.45737 -1.48828,0.85938l-0.62891,-0.21094c-0.195,-0.065 -0.40872,0.01731 -0.51172,0.19531l-0.37695,0.65234c-0.103,0.178 -0.06611,0.40502 0.08789,0.54102l0.49805,0.43945c-0.07,0.275 -0.11328,0.56237 -0.11328,0.85938c0,0.297 0.04228,0.58438 0.11328,0.85938l-0.49805,0.43945c-0.154,0.137 -0.19089,0.36302 -0.08789,0.54102l0.37695,0.65234c0.103,0.178 0.31672,0.26131 0.51172,0.19531l0.62891,-0.21094c0.41,0.402 0.91928,0.70037 1.48828,0.85938l0.13281,0.65039c0.041,0.202 0.21783,0.34766 0.42383,0.34766h0.75586c0.206,0 0.38283,-0.14566 0.42383,-0.34766l0.13281,-0.65039c0.569,-0.159 1.07828,-0.45737 1.48828,-0.85938l0.62891,0.21094c0.195,0.065 0.40872,-0.01731 0.51172,-0.19531l0.37695,-0.65234c0.103,-0.178 0.06611,-0.40502 -0.08789,-0.54102l-0.49805,-0.43945c0.07,-0.275 0.11328,-0.56237 0.11328,-0.85937c0,-0.297 -0.04228,-0.58438 -0.11328,-0.85937l0.49805,-0.43945c0.154,-0.136 0.19089,-0.36302 0.08789,-0.54102l-0.37695,-0.65234c-0.103,-0.178 -0.31672,-0.26131 -0.51172,-0.19531l-0.62891,0.21094c-0.41,-0.402 -0.91928,-0.70037 -1.48828,-0.85938l-0.13281,-0.65039c-0.041,-0.202 -0.21783,-0.34766 -0.42383,-0.34766zM18.5,17.81641c0.93,0 1.68359,0.75359 1.68359,1.68359c0,0.93 -0.75359,1.68359 -1.68359,1.68359c-0.93,0 -1.68359,-0.75359 -1.68359,-1.68359c0,-0.93 0.75359,-1.68359 1.68359,-1.68359z"></path></g></g></svg>