<svg xmlns="http://www.w3.org/2000/svg" xmlns:xlink="http://www.w3.org/1999/xlink" viewBox="0,0,256,256" width="50px" height="50px" fill-rule="nonzero"><g fill="#64748b" fill-rule="nonzero" stroke="none" stroke-width="1" stroke-linecap="butt" stroke-linejoin="miter" stroke-miterlimit="10" stroke-dasharray="" stroke-dashoffset="0" font-family="none" font-weight="none" font-size="none" text-anchor="none" style="mix-blend-mode: normal"><g transform="scale(5.12,5.12)"><path d="M25,0c-5.64453,0 -10.76953,1.01172 -14.5625,2.71875c-1.89453,0.85156 -3.45703,1.88281 -4.59375,3.09375c-1.13672,1.21094 -1.84375,2.64453 -1.84375,4.1875v9.8125c-0.00781,0.0625 -0.00781,0.125 0,0.1875v9.8125c-0.00781,0.0625 -0.00781,0.125 0,0.1875v9c0,1.54297 0.70703,2.97656 1.84375,4.1875c1.13672,1.21094 2.69922,2.24219 4.59375,3.09375c3.79297,1.70703 8.91797,2.71875 14.5625,2.71875c5.64453,0 10.76953,-1.01172 14.5625,-2.71875c1.89453,-0.85156 3.45703,-1.88281 4.59375,-3.09375c1.13672,-1.21094 1.84375,-2.64453 1.84375,-4.1875v-29c0,-1.54297 -0.70703,-2.97656 -1.84375,-4.1875c-1.13672,-1.21094 -2.69922,-2.24219 -4.59375,-3.09375c-3.79297,-1.70703 -8.91797,-2.71875 -14.5625,-2.71875zM25,2c5.40234,0 10.27344,1.01172 13.71875,2.5625c1.72266,0.77344 3.08203,1.67969 3.96875,2.625c0.88672,0.94531 1.3125,1.87109 1.3125,2.8125c0,0.94141 -0.42578,1.86719 -1.3125,2.8125c-0.88672,0.94531 -2.24609,1.85156 -3.96875,2.625c-3.44531,1.55078 -8.31641,2.5625 -13.71875,2.5625c-5.40234,0 -10.27344,-1.01172 -13.71875,-2.5625c-1.72266,-0.77344 -3.08203,-1.67969 -3.96875,-2.625c-0.88672,-0.94531 -1.3125,-1.87109 -1.3125,-2.8125c0,-0.94141 0.42578,-1.86719 1.3125,-2.8125c0.88672,-0.94531 2.24609,-1.85156 3.96875,-2.625c3.44531,-1.55078 8.31641,-2.5625 13.71875,-2.5625zM6,14.34375c1.12109,1.14453 2.62109,2.12109 4.4375,2.9375c3.79297,1.70703 8.91797,2.71875 14.5625,2.71875c5.64453,0 10.76953,-1.01172 14.5625,-2.71875c1.81641,-0.81641 3.31641,-1.79297 4.4375,-2.9375v5.5c0,0.03125 0,0.0625 0,0.09375v0.0625c0,0.94141 -0.42578,1.86719 -1.3125,2.8125c-0.88672,0.94531 -2.24609,1.85156 -3.96875,2.625c-3.44531,1.55078 -8.31641,2.5625 -13.71875,2.5625c-5.40234,0 -10.27344,-1.01172 -13.71875,-2.5625c-1.72266,-0.77344 -3.08203,-1.67969 -3.96875,-2.625c-0.88672,-0.94531 -1.3125,-1.87109 -1.3125,-2.8125c0.00781,-0.0625 0.00781,-0.125 0,-0.1875zM6,24.34375c1.12109,1.14453 2.62109,2.12109 4.4375,2.9375c3.79297,1.70703 8.91797,2.71875 14.5625,2.71875c5.64453,0 10.76953,-1.01172 14.5625,-2.71875c1.81641,-0.81641 3.31641,-1.79297 4.4375,-2.9375v5.5c0,0.03125 0,0.0625 0,0.09375v0.0625c0,0.94141 -0.42578,1.86719 -1.3125,2.8125c-0.88672,0.94531 -2.24609,1.85156 -3.96875,2.625c-3.44531,1.55078 -8.31641,2.5625 -13.71875,2.5625c-5.40234,0 -10.27344,-1.01172 -13.71875,-2.5625c-1.72266,-0.77344 -3.08203,-1.67969 -3.96875,-2.625c-0.88672,-0.94531 -1.3125,-1.87109 -1.3125,-2.8125c0.00781,-0.0625 0.00781,-0.125 0,-0.1875zM6,34.34375c1.12109,1.14453 2.62109,2.12109 4.4375,2.9375c3.79297,1.70703 8.91797,2.71875 14.5625,2.71875c5.64453,0 10.76953,-1.01172 14.5625,-2.71875c1.81641,-0.81641 3.31641,-1.79297 4.4375,-2.9375v4.65625c0,0.94141 -0.42578,1.86719 -1.3125,2.8125c-0.88672,0.94531 -2.24609,1.85156 -3.96875,2.625c-3.44531,1.55078 -8.31641,2.5625 -13.71875,2.5625c-5.40234,0 -10.27344,-1.01172 -13.71875,-2.5625c-1.72266,-0.77344 -3.08203,-1.67969 -3.96875,-2.625c-0.88672,-0.94531 -1.3125,-1.87109 -1.3125,-2.8125z"></path></g></g></svg>