<svg xmlns="http://www.w3.org/2000/svg" xmlns:xlink="http://www.w3.org/1999/xlink" viewBox="0,0,256,256" width="64px" height="64px" fill-rule="nonzero"><g fill="#ffffff" fill-rule="nonzero" stroke="none" stroke-width="1" stroke-linecap="butt" stroke-linejoin="miter" stroke-miterlimit="10" stroke-dasharray="" stroke-dashoffset="0" font-family="none" font-weight="none" font-size="none" text-anchor="none" style="mix-blend-mode: normal"><g transform="scale(0.5,0.5)"><path d="M430,470h-110c-5.522,0 -10,-4.478 -10,-10v-120c0,-29.775 -24.225,-54 -54,-54c-29.776,0 -54,24.225 -54,54v120c0,5.522 -4.477,10 -10,10h-112c-5.523,0 -10,-4.478 -10,-10v-250c0,-2.884 1.245,-5.627 3.415,-7.526l176,-154c3.786,-3.313 9.444,-3.297 13.213,0.038l174,154c2.144,1.898 3.372,4.624 3.372,7.488v250c0,5.522 -4.478,10 -10,10zM330,450h90v-235.497l-164.038,-145.182l-165.962,145.217v235.462h92v-110c0,-40.804 33.196,-74 74,-74c40.804,0 74,33.196 74,74z"></path></g></g></svg>