<svg xmlns="http://www.w3.org/2000/svg" xmlns:xlink="http://www.w3.org/1999/xlink" viewBox="0,0,256,256" width="128px" height="128px" fill-rule="nonzero"><g fill="#ffffff" fill-rule="nonzero" stroke="none" stroke-width="1" stroke-linecap="butt" stroke-linejoin="miter" stroke-miterlimit="10" stroke-dasharray="" stroke-dashoffset="0" font-family="none" font-weight="none" font-size="none" text-anchor="none" style="mix-blend-mode: normal"><g transform="scale(2,2)"><path d="M101.1,105.6c-7.4,-12.9 -21.2,-21.6 -37.1,-21.6v0c-15.9,0 -29.7,8.7 -37.1,21.6l0.1,3.4h74zM64,30c-11.04569,0 -20,8.95431 -20,20c0,11.04569 8.95431,20 20,20c11.04569,0 20,-8.95431 20,-20c0,-11.04569 -8.95431,-20 -20,-20z"></path><path d="M64,73c-12.7,0 -23,-10.3 -23,-23c0,-12.7 10.3,-23 23,-23c12.7,0 23,10.3 23,23c0,12.7 -10.3,23 -23,23zM64,33c-9.4,0 -17,7.6 -17,17c0,9.4 7.6,17 17,17c9.4,0 17,-7.6 17,-17c0,-9.4 -7.6,-17 -17,-17zM26.9,108.6c-0.5,0 -1,-0.1 -1.5,-0.4c-1.4,-0.8 -1.9,-2.6 -1.1,-4.1c8.1,-14.2 23.3,-23.1 39.7,-23.1c16.4,0 31.6,8.9 39.7,23.1c0.8,1.4 0.3,3.3 -1.1,4.1c-1.4,0.8 -3.3,0.3 -4.1,-1.1c-7.1,-12.4 -20.3,-20.1 -34.5,-20.1c-14.2,0 -27.4,7.7 -34.5,20.1c-0.5,0.9 -1.5,1.5 -2.6,1.5z"></path></g></g></svg>