<svg xmlns="http://www.w3.org/2000/svg" xmlns:xlink="http://www.w3.org/1999/xlink" viewBox="0,0,256,256" width="30px" height="30px" fill-rule="nonzero"><g fill="#ffffff" fill-rule="nonzero" stroke="none" stroke-width="1" stroke-linecap="butt" stroke-linejoin="miter" stroke-miterlimit="10" stroke-dasharray="" stroke-dashoffset="0" font-family="none" font-weight="none" font-size="none" text-anchor="none" style="mix-blend-mode: normal"><g transform="scale(8.53333,8.53333)"><path d="M15,0c-1.64501,0 -3,1.35499 -3,3h-2h-2c-1.64497,0 -3,1.35503 -3,3v18c0,1.64497 1.35503,3 3,3h14c1.64497,0 3,-1.35503 3,-3v-18c0,-1.64497 -1.35503,-3 -3,-3h-2h-2c0,-1.64501 -1.35499,-3 -3,-3zM15,2c0.56413,0 1,0.43587 1,1c0,0.56413 -0.43587,1 -1,1c-0.56413,0 -1,-0.43587 -1,-1c0,-0.56413 0.43587,-1 1,-1zM8,5h2c0,1.105 0.895,2 2,2h6c1.105,0 2,-0.895 2,-2h2c0.56503,0 1,0.43497 1,1v18c0,0.56503 -0.43497,1 -1,1h-14c-0.56503,0 -1,-0.43497 -1,-1v-18c0,-0.56503 0.43497,-1 1,-1zM19.98047,10.99023c-0.2598,0.00774 -0.50638,0.11632 -0.6875,0.30274l-0.70703,0.70703h-0.58594c-0.36064,-0.0051 -0.69608,0.18438 -0.87789,0.49587c-0.18181,0.3115 -0.18181,0.69676 0,1.00825c0.18181,0.3115 0.51725,0.50097 0.87789,0.49587h1c0.2652,-0.00005 0.51952,-0.10543 0.70703,-0.29297l1,-1c0.29576,-0.28749 0.38469,-0.72707 0.22393,-1.10691c-0.16075,-0.37985 -0.53821,-0.62204 -0.9505,-0.60988zM10,12c-0.36064,-0.0051 -0.69608,0.18438 -0.87789,0.49587c-0.18181,0.3115 -0.18181,0.69676 0,1.00825c0.18181,0.3115 0.51725,0.50097 0.87789,0.49587h4c0.36064,0.0051 0.69608,-0.18438 0.87789,-0.49587c0.18181,-0.3115 0.18181,-0.69676 0,-1.00825c-0.18181,-0.3115 -0.51725,-0.50097 -0.87789,-0.49587zM19.98047,16.99023c-0.2598,0.00774 -0.50638,0.11632 -0.6875,0.30273l-0.70703,0.70703h-0.58594c-0.36064,-0.0051 -0.69608,0.18438 -0.87789,0.49587c-0.18181,0.3115 -0.18181,0.69676 0,1.00825c0.18181,0.3115 0.51725,0.50097 0.87789,0.49587h1c0.2652,-0.00005 0.51952,-0.10543 0.70703,-0.29297l1,-1c0.29576,-0.28749 0.38469,-0.72707 0.22393,-1.10691c-0.16075,-0.37985 -0.53821,-0.62204 -0.9505,-0.60988zM10,18c-0.36064,-0.0051 -0.69608,0.18438 -0.87789,0.49587c-0.18181,0.3115 -0.18181,0.69676 0,1.00825c0.18181,0.3115 0.51725,0.50097 0.87789,0.49587h4c0.36064,0.0051 0.69608,-0.18438 0.87789,-0.49587c0.18181,-0.3115 0.18181,-0.69676 0,-1.00825c-0.18181,-0.3115 -0.51725,-0.50097 -0.87789,-0.49587z"></path></g></g></svg>