<svg xmlns="http://www.w3.org/2000/svg" xmlns:xlink="http://www.w3.org/1999/xlink" viewBox="0,0,256,256" width="30px" height="30px" fill-rule="nonzero"><g fill="#ffffff" fill-rule="nonzero" stroke="none" stroke-width="1" stroke-linecap="butt" stroke-linejoin="miter" stroke-miterlimit="10" stroke-dasharray="" stroke-dashoffset="0" font-family="none" font-weight="none" font-size="none" text-anchor="none" style="mix-blend-mode: normal"><g transform="scale(8.53333,8.53333)"><path d="M15,3c-3.05385,0 -5.84049,1.15537 -7.96094,3.03906l-2.03906,-2.03906v6h6l-2.54492,-2.54492c1.75444,-1.52405 4.03295,-2.45508 6.54492,-2.45508c5.53453,0 10,4.46547 10,10c0,5.53453 -4.46547,10 -10,10c-5.53453,0 -10,-4.46547 -10,-10c0.0051,-0.36064 -0.18438,-0.69608 -0.49587,-0.87789c-0.3115,-0.18181 -0.69676,-0.18181 -1.00825,0c-0.3115,0.18181 -0.50097,0.51725 -0.49587,0.87789c0,6.61547 5.38453,12 12,12c6.61547,0 12,-5.38453 12,-12c0,-6.61547 -5.38453,-12 -12,-12z"></path></g></g></svg>