<svg xmlns="http://www.w3.org/2000/svg" xmlns:xlink="http://www.w3.org/1999/xlink" viewBox="0,0,256,256" width="48px" height="48px" fill-rule="nonzero"><g fill="#ffffff" fill-rule="nonzero" stroke="none" stroke-width="1" stroke-linecap="butt" stroke-linejoin="miter" stroke-miterlimit="10" stroke-dasharray="" stroke-dashoffset="0" font-family="none" font-weight="none" font-size="none" text-anchor="none" style="mix-blend-mode: normal"><g transform="scale(5.33333,5.33333)"><path d="M11.5,6c-3.01977,0 -5.5,2.48023 -5.5,5.5v25c0,3.01977 2.48023,5.5 5.5,5.5h25c3.01977,0 5.5,-2.48023 5.5,-5.5v-25c0,-3.01977 -2.48023,-5.5 -5.5,-5.5zM11.5,9h2.5v5h-5v-2.5c0,-1.39823 1.10177,-2.5 2.5,-2.5zM17,9h19.5c1.39823,0 2.5,1.10177 2.5,2.5v2.5h-22zM9,17h5v22h-2.5c-1.39823,0 -2.5,-1.10177 -2.5,-2.5zM17,17h22v19.5c0,1.39823 -1.10177,2.5 -2.5,2.5h-19.5z"></path></g></g></svg>