<svg xmlns="http://www.w3.org/2000/svg" xmlns:xlink="http://www.w3.org/1999/xlink" viewBox="0,0,256,256" width="50px" height="50px" fill-rule="nonzero"><g fill="#7d61b4" fill-rule="nonzero" stroke="none" stroke-width="1" stroke-linecap="butt" stroke-linejoin="miter" stroke-miterlimit="10" stroke-dasharray="" stroke-dashoffset="0" font-family="none" font-weight="none" font-size="none" text-anchor="none" style="mix-blend-mode: normal"><g transform="scale(5.12,5.12)"><path d="M23.48828,4.00781c-0.19531,-0.01172 -0.39453,0 -0.59766,0.03516c-1.15625,0.20703 -1.94141,1.15625 -2.12891,2.21875c0,0 0,0 0,0.00391l-2.71484,15.39063l-3.29297,5.83203c0,0.00391 0,0.00391 0,0.00391c-0.17578,0.31641 -0.50781,0.50781 -0.86719,0.50781h-3.88672c0,-0.55078 -0.44922,-1 -1,-1h-6c-0.55078,0 -1,0.44922 -1,1v17c0,0.55078 0.44922,1 1,1h6c0.55078,0 1,-0.44922 1,-1v-3h6.125c3.87891,0 7.20703,-2.79297 7.87891,-6.60937l0.99609,-5.63672l0.99609,5.63672c0.67188,3.81641 4,6.60938 7.87891,6.60938h6.125v3c0,0.55078 0.44922,1 1,1h6c0.55078,0 1,-0.44922 1,-1v-17c0,-0.55078 -0.44922,-1 -1,-1h-6c-0.55078,0 -1,0.44922 -1,1h-3.88672c-0.35937,0 -0.69141,-0.19141 -0.86719,-0.50781c0,0 0,0 0,-0.00391l-3.29297,-5.83203l-2.71484,-15.39062c0,-0.00391 0,-0.00391 0,-0.00391c-0.1875,-1.0625 -0.97266,-2.01172 -2.12891,-2.21875c-0.78516,-0.14063 -1.53906,0.09375 -2.10937,0.55078c-0.42187,-0.33984 -0.94531,-0.55859 -1.51172,-0.58594zM23.24219,6.01172c0.45313,-0.08203 0.75781,0.21875 0.75781,0.62109v17.27734l-1.96484,11.13281c-0.50391,2.875 -2.98828,4.95703 -5.91016,4.95703h-6.125v-10h3.88672c1.07813,0 2.08203,-0.58594 2.61328,-1.52734h-0.00391l3.375,-5.98047c0.05469,-0.09766 0.09375,-0.20703 0.11328,-0.32031l2.74609,-15.5625c0.05469,-0.31641 0.28906,-0.55859 0.51172,-0.59766zM26.75781,6.01172c0.22266,0.03906 0.45703,0.28125 0.51172,0.59766l2.74609,15.5625c0.01953,0.11328 0.05859,0.22266 0.11328,0.32031l3.375,5.98047h-0.00391c0.53125,0.94141 1.53516,1.52734 2.61328,1.52734h3.88672v10h-6.125c-2.92187,0 -5.40625,-2.08203 -5.91016,-4.95703l-1.96484,-11.13281v-17.27734c0,-0.40234 0.30469,-0.70312 0.75781,-0.62109zM4,29h4v15h-4zM42,29h4v15h-4z"></path></g></g></svg>